<svg width="25" height="25" viewBox="0 0 25 25" fill="none" xmlns="http://www.w3.org/2000/svg">
<g clip-path="url(#clip0_1_132)">
<path d="M23.9729 5.21507H4.42589L4.13534 1.97815C4.08781 1.44881 3.64418 1.04321 3.11273 1.04321H1.02671C0.459672 1.04321 0 1.50288 0 2.06992C0 2.63696 0.459672 3.09663 1.02671 3.09663H2.17408C2.8011 10.0823 1.18057 -7.973 3.35494 16.2526C3.43874 17.2008 3.95107 18.2297 4.83364 18.9289C3.24239 20.961 4.69631 23.9567 7.28474 23.9567C9.4331 23.9567 10.9484 21.8141 10.2116 19.7847H15.831C15.0952 21.8115 16.6072 23.9567 18.7579 23.9567C20.4742 23.9567 21.8706 22.5604 21.8706 20.844C21.8706 19.1276 20.4742 17.7313 18.7579 17.7313H7.29168C6.51177 17.7313 5.83214 17.2607 5.5388 16.5752L21.947 15.6109C22.3949 15.5846 22.7739 15.2703 22.8828 14.835L24.969 6.49078C25.1307 5.84376 24.6409 5.21507 23.9729 5.21507V5.21507ZM7.28474 21.9033C6.70069 21.9033 6.22547 21.4281 6.22547 20.844C6.22547 20.2599 6.70069 19.7847 7.28474 19.7847C7.86884 19.7847 8.34406 20.2599 8.34406 20.844C8.34406 21.4281 7.86884 21.9033 7.28474 21.9033ZM18.7578 21.9033C18.1737 21.9033 17.6985 21.4281 17.6985 20.844C17.6985 20.2599 18.1737 19.7847 18.7578 19.7847C19.3419 19.7847 19.8171 20.2599 19.8171 20.844C19.8171 21.4281 19.3419 21.9033 18.7578 21.9033ZM21.0736 13.6053L5.26242 14.5344L4.61021 7.26844H22.6579L21.0736 13.6053Z" fill="#EB2D66"/>
</g>
<defs>
<clipPath id="clip0_1_132">
<rect width="25" height="25" fill="white"/>
</clipPath>
</defs>
</svg>
